<svg width="760" height="760" viewBox="0 0 760 760" fill="none" xmlns="http://www.w3.org/2000/svg">
<g opacity="0.9">
<rect width="760" height="760" fill="white"/>
<g clip-path="url(#clip0_502_5)">
<path d="M436.866 272.244C436.866 191.891 398.131 122.664 368.463 100C368.463 100 366.402 98.7638 366.402 102.06C363.93 257.41 285.225 299.853 241.546 356.306C141.413 487.344 234.541 630.743 329.316 657.116C382.473 671.95 316.954 630.743 308.713 544.209C298.823 439.132 436.866 359.191 436.866 272.244" fill="#282E5B"/>
<path d="M488.786 325.401C488.374 324.989 487.55 324.989 486.726 325.401C486.726 325.401 486.726 325.401 486.314 325.813C484.665 345.18 463.238 387.211 436.453 425.533C345.387 555.747 397.307 618.381 426.564 652.171C443.459 671.95 426.564 652.171 469.007 631.979C472.303 630.331 551.42 588.3 560.074 493.113C568.727 400.397 509.802 342.296 488.786 325.401" fill="#059BDC"/>
</g>
</g>
<defs>
<clipPath id="clip0_502_5">
<rect width="362.62" height="560" fill="white" transform="translate(198.69 100)"/>
</clipPath>
</defs>
</svg>
