<svg width="500" height="500" viewBox="0 0 500 500" fill="none" xmlns="http://www.w3.org/2000/svg">
<path d="M500 0H0V500H500V0Z" fill="black"/>
<path d="M317.652 278.72V197H334.078V278.72H317.652Z" fill="#F7A600"/>
<path d="M126.214 302.994H91V221.274H124.798C141.224 221.274 150.795 230.226 150.795 244.23C150.795 253.295 144.648 259.152 140.393 261.103C145.472 263.397 151.972 268.561 151.972 279.47C151.973 294.73 141.224 302.994 126.214 302.994ZM123.498 235.509H107.426V254.332H123.498C130.469 254.332 134.369 250.544 134.369 244.917C134.37 239.297 130.469 235.509 123.498 235.509ZM124.56 268.68H107.426V288.766H124.56C132.007 288.766 135.547 284.178 135.547 278.664C135.547 273.156 132.001 268.68 124.56 268.68Z" fill="white"/>
<path d="M202.075 269.48V302.994H185.765V269.48L160.476 221.275H178.318L194.036 254.214L209.516 221.275H227.358L202.075 269.48Z" fill="white"/>
<path d="M273.927 302.994H238.713V221.274H272.511C288.937 221.274 298.508 230.226 298.508 244.23C298.508 253.295 292.361 259.152 288.106 261.103C293.184 263.397 299.686 268.561 299.686 279.47C299.686 294.73 288.937 302.994 273.927 302.994ZM271.21 235.509H255.138V254.332H271.21C278.181 254.332 282.081 250.544 282.081 244.917C282.082 239.297 278.181 235.509 271.21 235.509ZM272.272 268.68H255.138V288.766H272.272C279.719 288.766 283.259 284.178 283.259 278.664C283.259 273.156 279.719 268.68 272.272 268.68Z" fill="white"/>
<path d="M387.019 235.509V303H370.593V235.509H348.612V221.274H409V235.509H387.019Z" fill="white"/>
</svg>
