<svg width="644" height="644" viewBox="0 0 644 644" fill="none" xmlns="http://www.w3.org/2000/svg">
<g clip-path="url(#clip0_502_2)">
<path fill-rule="evenodd" clip-rule="evenodd" d="M117.996 44.75L0.616847 291.304C0.170188 292.221 0.0286442 293.257 0.212916 294.26C0.397188 295.264 0.897608 296.181 1.641 296.88L318.653 600.653C319.553 601.517 320.752 601.999 322 601.999C323.248 601.999 324.447 601.517 325.347 600.653L642.359 296.899C643.102 296.2 643.603 295.282 643.787 294.279C643.971 293.276 643.83 292.24 643.383 291.323L526.005 44.769C525.626 43.941 525.016 43.2395 524.25 42.7485C523.483 42.2574 522.591 41.9976 521.68 42H122.358C121.443 41.9886 120.544 42.2422 119.77 42.7302C118.996 43.2181 118.38 43.9196 117.996 44.75Z" fill="#50AF95"/>
<path fill-rule="evenodd" clip-rule="evenodd" d="M362.729 316.623C360.453 316.794 348.694 317.496 322.465 317.496C301.602 317.496 286.79 316.87 281.594 316.623C200.971 313.077 140.792 299.042 140.792 282.238C140.792 265.435 200.971 251.419 281.594 247.816V302.646C286.866 303.025 301.963 303.916 322.825 303.916C347.86 303.916 360.396 302.873 362.653 302.665V247.854C443.105 251.438 503.151 265.473 503.151 282.238C503.151 299.004 443.124 313.039 362.653 316.604L362.729 316.623ZM362.729 242.183V193.119H475.006V118.299H169.317V193.119H281.575V242.164C190.331 246.355 121.713 264.43 121.713 286.088C121.713 307.747 190.331 325.803 281.575 330.013V487.239H362.71V329.956C453.745 325.765 522.249 307.709 522.249 286.07C522.249 264.43 453.802 246.374 362.71 242.164L362.729 242.183Z" fill="white"/>
</g>
<defs>
<clipPath id="clip0_502_2">
<rect width="643.753" height="560" fill="white" transform="translate(0.123779 42)"/>
</clipPath>
</defs>
</svg>
