<svg xmlns="http://www.w3.org/2000/svg" xmlns:xlink="http://www.w3.org/1999/xlink" viewBox="0 0 204.21 64.14"><defs><style>.cls-1{fill:#fff;}.cls-2{fill:#fcfcfc;}.cls-3{fill:url(#linear-gradient);}</style><linearGradient id="linear-gradient" x1="13.06" y1="53.13" x2="51.61" y2="14.57" gradientTransform="matrix(1, 0, 0, -1, 0, 65.66)" gradientUnits="userSpaceOnUse"><stop offset="0" stop-color="#f99f1b"/><stop offset="0.2" stop-color="#f79022"/><stop offset="0.37" stop-color="#f5812a"/><stop offset="0.6" stop-color="#f15e32"/><stop offset="0.75" stop-color="#e2483a"/><stop offset="0.86" stop-color="#c53345"/><stop offset="1" stop-color="#bb2c4a"/></linearGradient></defs><g id="Layer_2" data-name="Layer 2"><g id="Layer_1-2" data-name="Layer 1"><rect class="cls-1" width="204.21" height="64.14"/><circle class="cls-2" cx="32.12" cy="31.78" r="27.04"/><path class="cls-3" d="M32.31,44.78a12.93,12.93,0,0,1-6.59-1.71A13.45,13.45,0,0,1,21,38.36a12.93,12.93,0,0,1-1.7-6.58A12.68,12.68,0,0,1,21,25.26a13.14,13.14,0,0,1,4.71-4.6,12.55,12.55,0,0,1,6.59-1.76,13.07,13.07,0,0,1,6.63,1.7,12.63,12.63,0,0,1,4.66,4.66,12.38,12.38,0,0,1,1.77,6.52,12.6,12.6,0,0,1-1.77,6.58,12.67,12.67,0,0,1-11.29,6.42Zm0-5.5A7.25,7.25,0,0,0,36,38.35a6.59,6.59,0,0,0,2.53-2.7,7.9,7.9,0,0,0,.93-3.88,7.64,7.64,0,0,0-.93-3.84A7.07,7.07,0,0,0,36,25.34a7.59,7.59,0,0,0-7.46,0,6.7,6.7,0,0,0-2.53,2.59,8,8,0,0,0-.88,3.84,8.31,8.31,0,0,0,.88,3.88,7.3,7.3,0,0,0,2.53,2.7A7.38,7.38,0,0,0,32.31,39.28Zm0,19.63a27.09,27.09,0,0,1-13.77-3.58,28.07,28.07,0,0,1-9.85-9.85A27,27,0,0,1,5.09,31.72,26.41,26.41,0,0,1,8.66,18.07a27.41,27.41,0,0,1,9.85-9.64A26.48,26.48,0,0,1,32.28,4.75,27.48,27.48,0,0,1,46.15,8.33a26.24,26.24,0,0,1,9.74,9.74,25.74,25.74,0,0,1,3.68,13.65,26.3,26.3,0,0,1-3.68,13.76A26.49,26.49,0,0,1,32.28,58.91Zm.06-10.25a16.57,16.57,0,0,0,8.47-2.12,15,15,0,0,0,5.77-6.12,18.11,18.11,0,0,0,2.11-8.82,17.41,17.41,0,0,0-2.11-8.7A15.45,15.45,0,0,0,40.81,17a16,16,0,0,0-8.47-2.24A16.16,16.16,0,0,0,23.87,17,15.52,15.52,0,0,0,18.1,22.9a18.25,18.25,0,0,0-2,8.7,18.94,18.94,0,0,0,2,8.82,16,16,0,0,0,5.77,6.12A17,17,0,0,0,32.34,48.66Z"/><path d="M82.56,29.06v12.4H78.82V22.12h2.9l10,12.69V22.15h3.74V41.46h-3Z"/><path d="M113.09,41.59a9,9,0,0,1-3.85-.81,10,10,0,0,1-2.95-2.21,10.42,10.42,0,0,1-1.89-3.16,10.08,10.08,0,0,1,0-7.33,10.67,10.67,0,0,1,2-3.13,9.48,9.48,0,0,1,3-2.15,8.66,8.66,0,0,1,3.77-.82,8.23,8.23,0,0,1,3.79.87,9.38,9.38,0,0,1,3,2.24,10.3,10.3,0,0,1,1.89,3.16,10,10,0,0,1,0,7.3,10.29,10.29,0,0,1-2,3.1,9.64,9.64,0,0,1-3,2.15A8.92,8.92,0,0,1,113.09,41.59Zm-5.58-9.8a7.9,7.9,0,0,0,.38,2.42A6.58,6.58,0,0,0,109,36.28a5.58,5.58,0,0,0,1.76,1.44,5,5,0,0,0,2.38.55,5,5,0,0,0,2.39-.55,5.39,5.39,0,0,0,1.75-1.49,6.42,6.42,0,0,0,1.09-2.07,7.73,7.73,0,0,0,.38-2.37,7.38,7.38,0,0,0-.41-2.43,6.26,6.26,0,0,0-1.11-2.07,5,5,0,0,0-1.76-1.41,4.8,4.8,0,0,0-2.33-.55,5,5,0,0,0-2.41.57,5.35,5.35,0,0,0-1.76,1.47,6.58,6.58,0,0,0-1.08,2.07A8.16,8.16,0,0,0,107.51,31.79Z"/><path d="M146.43,41.46V28.65l-5,9.54h-2l-4.95-9.54V41.46h-3.74V22.12h4l5.68,11,5.74-11h4V41.46Z"/><path d="M167.8,41.59a8.92,8.92,0,0,1-3.84-.81,10,10,0,0,1-3-2.21,10.25,10.25,0,0,1-1.9-3.16,10.1,10.1,0,0,1-.68-3.62,10,10,0,0,1,.71-3.71,10.64,10.64,0,0,1,2-3.13,9.41,9.41,0,0,1,3-2.15,8.62,8.62,0,0,1,3.76-.82,8.2,8.2,0,0,1,3.79.87,9.27,9.27,0,0,1,3,2.24,10.13,10.13,0,0,1,1.9,3.16,10.07,10.07,0,0,1,0,7.3,10.29,10.29,0,0,1-2,3.1,9.53,9.53,0,0,1-3,2.15A8.89,8.89,0,0,1,167.8,41.59Zm-5.58-9.8a7.9,7.9,0,0,0,.38,2.42,6.81,6.81,0,0,0,1.09,2.07,5.47,5.47,0,0,0,1.76,1.44,5,5,0,0,0,2.38.55,5,5,0,0,0,2.38-.55A5.53,5.53,0,0,0,172,36.23a6.21,6.21,0,0,0,1.08-2.07,7.58,7.58,0,0,0,0-4.8,6.64,6.64,0,0,0-1.11-2.07,5,5,0,0,0-1.76-1.41,4.86,4.86,0,0,0-2.33-.55,5,5,0,0,0-2.41.57,5.25,5.25,0,0,0-1.76,1.47,6.58,6.58,0,0,0-1.08,2.07A7.84,7.84,0,0,0,162.22,31.79Z"/><path d="M196.93,27.18a4.44,4.44,0,0,0-.71-.51A6.54,6.54,0,0,0,195,26a8.19,8.19,0,0,0-1.54-.54,6.56,6.56,0,0,0-1.7-.22,3.85,3.85,0,0,0-2.31.57,1.91,1.91,0,0,0-.75,1.61,1.76,1.76,0,0,0,.27,1,2.68,2.68,0,0,0,.84.69,7.41,7.41,0,0,0,1.35.54c.56.16,1.2.34,1.92.52a25.73,25.73,0,0,1,2.55.81,7.24,7.24,0,0,1,2,1.09,4.51,4.51,0,0,1,1.24,1.58,5.14,5.14,0,0,1,.43,2.24,5.6,5.6,0,0,1-.59,2.67,4.86,4.86,0,0,1-1.57,1.77,6.76,6.76,0,0,1-2.28,1,11.58,11.58,0,0,1-2.68.3,14.23,14.23,0,0,1-4.27-.65,13.23,13.23,0,0,1-3.79-1.85l1.65-3.24a6,6,0,0,0,.86.65c.44.26.94.52,1.52.79A13.08,13.08,0,0,0,190,38a8.34,8.34,0,0,0,2.17.28c2.06,0,3.09-.67,3.09-2a1.6,1.6,0,0,0-.36-1.06,3,3,0,0,0-1-.77,11.31,11.31,0,0,0-1.57-.6l-2.06-.59a21,21,0,0,1-2.41-.82,6.94,6.94,0,0,1-1.67-1.06,4.14,4.14,0,0,1-1-1.42,5.16,5.16,0,0,1-.33-1.93,6.07,6.07,0,0,1,.54-2.62,5.4,5.4,0,0,1,1.49-1.91,6.82,6.82,0,0,1,2.25-1.14,9,9,0,0,1,2.73-.41,10.28,10.28,0,0,1,3.74.66,13.16,13.16,0,0,1,3,1.49Z"/></g></g></svg>