<svg width="102" height="32" viewBox="0 0 102 32" fill="none" xmlns="http://www.w3.org/2000/svg">
<circle cx="15.9759" cy="15.9758" r="13.5181" fill="white"/>
<g filter="url(#filter0_d_44_6508)">
<path d="M16.0681 22.4738C14.8559 22.4738 13.7665 22.19 12.7768 21.6224C11.7948 21.0317 11.0045 20.2494 10.4215 19.2675C9.85373 18.2857 9.56987 17.1888 9.56987 15.9769C9.56987 14.7649 9.85373 13.6834 10.4215 12.7169C11.0045 11.7504 11.7948 10.9834 12.7768 10.4158C13.7588 9.82512 14.8559 9.53364 16.0681 9.53364C17.2803 9.53364 18.4004 9.81745 19.3825 10.3851C20.3645 10.9527 21.1471 11.7351 21.7148 12.7169C22.2979 13.6834 22.5971 14.7726 22.5971 15.9769C22.5971 17.1811 22.3055 18.278 21.7148 19.2675C21.1471 20.2494 20.3645 21.0394 19.3825 21.6224C18.4004 22.19 17.2957 22.4738 16.0681 22.4738ZM16.0681 19.7278C16.774 19.7278 17.3954 19.5743 17.9325 19.2599C18.4848 18.93 18.9068 18.4851 19.1983 17.9098C19.5129 17.3422 19.6663 16.6902 19.6663 15.9692C19.6663 15.2482 19.5129 14.6039 19.1983 14.0516C18.8838 13.4993 18.4618 13.0698 17.9325 12.7553C17.3954 12.4254 16.774 12.2643 16.0681 12.2643C15.3623 12.2643 14.7562 12.4254 14.2038 12.7553C13.6668 13.0698 13.2448 13.4993 12.9379 14.0516C12.6464 14.6039 12.5006 15.2405 12.5006 15.9692C12.5006 16.6979 12.6464 17.3422 12.9379 17.9098C13.2525 18.4775 13.6744 18.93 14.2038 19.2599C14.7562 19.5743 15.3776 19.7278 16.0681 19.7278ZM16.0528 29.5383C13.5287 29.5383 11.2347 28.9401 9.17092 27.7511C7.1148 26.5238 5.47297 24.8823 4.24543 22.8266C3.05626 20.7709 2.45783 18.4775 2.45783 15.9462C2.45783 13.4149 3.05626 11.1445 4.24543 9.11943C5.47297 7.09442 7.1148 5.49128 9.17092 4.30235C11.2347 3.07507 13.5287 2.46143 16.0528 2.46143C18.5769 2.46143 20.9246 3.05973 22.9884 4.24866C25.0445 5.43759 26.671 7.06374 27.8601 9.11943C29.0877 11.1445 29.7014 13.4149 29.7014 15.9462C29.7014 18.4775 29.0877 20.7633 27.8601 22.8266C26.671 24.8823 25.0445 26.5238 22.9884 27.7511C20.9322 28.9401 18.6229 29.5383 16.0528 29.5383ZM16.0835 24.4144C17.6946 24.4144 19.1063 24.0616 20.3185 23.3559C21.5767 22.6119 22.5357 21.5917 23.2032 20.2954C23.909 18.9991 24.2619 17.534 24.2619 15.8848C24.2619 14.2357 23.909 12.7859 23.2032 11.5356C22.4974 10.2854 21.5383 9.30353 20.3185 8.59784C19.1063 7.8538 17.6946 7.47794 16.0835 7.47794C14.4723 7.47794 13.1067 7.8538 11.8485 8.59784C10.6363 9.30353 9.6696 10.2854 8.96377 11.5356C8.2963 12.7936 7.9664 14.2433 7.9664 15.8848C7.9664 17.5263 8.2963 18.9991 8.96377 20.2954C9.6696 21.5917 10.6286 22.6119 11.8485 23.3559C13.1067 24.0616 14.5184 24.4144 16.0835 24.4144Z" fill="url(#paint0_linear_44_6508)"/>
</g>
<path d="M41.1933 14.6177V20.8141H39.3253V11.145H40.7737L45.782 17.4912V11.1586H47.6499V20.8141H46.1339L41.1933 14.6177Z" fill="white"/>
<path d="M56.4577 20.8822C55.7539 20.8822 55.1132 20.746 54.5356 20.4736C53.9671 20.1922 53.4753 19.8245 53.0602 19.3706C52.6541 18.9075 52.3383 18.3809 52.1127 17.7908C51.8871 17.2007 51.7743 16.5969 51.7743 15.9796C51.7743 15.3349 51.8916 14.7176 52.1262 14.1274C52.3699 13.5373 52.6993 13.0153 53.1144 12.5613C53.5385 12.1074 54.0393 11.7487 54.6169 11.4855C55.1944 11.2131 55.8216 11.0769 56.4984 11.0769C57.1932 11.0769 57.8249 11.2222 58.3934 11.5127C58.9709 11.7941 59.4627 12.1664 59.8688 12.6294C60.2749 13.0924 60.5907 13.619 60.8163 14.2092C61.0419 14.7993 61.1547 15.3985 61.1547 16.0068C61.1547 16.6514 61.0374 17.2688 60.8028 17.8589C60.5682 18.44 60.2433 18.9575 59.8282 19.4114C59.4131 19.8563 58.9168 20.2149 58.3392 20.4873C57.7617 20.7506 57.1345 20.8822 56.4577 20.8822ZM53.6693 15.9796C53.6693 16.3972 53.7325 16.8012 53.8588 17.1916C53.9852 17.582 54.1657 17.927 54.4003 18.2266C54.6439 18.5262 54.9372 18.7668 55.2801 18.9484C55.632 19.13 56.0291 19.2207 56.4713 19.2207C56.9225 19.2207 57.3195 19.13 57.6624 18.9484C58.0144 18.7577 58.3077 18.508 58.5423 18.1994C58.7859 17.8907 58.9664 17.5457 59.0837 17.1644C59.2101 16.774 59.2732 16.379 59.2732 15.9796C59.2732 15.5619 59.2056 15.1579 59.0702 14.7675C58.9439 14.3771 58.7589 14.0321 58.5152 13.7325C58.2806 13.4329 57.9873 13.1968 57.6354 13.0243C57.2925 12.8428 56.9044 12.752 56.4713 12.752C56.0201 12.752 55.6185 12.8473 55.2666 13.038C54.9146 13.2195 54.6214 13.4647 54.3867 13.7734C54.1521 14.073 53.9716 14.418 53.8453 14.8084C53.728 15.1897 53.6693 15.5801 53.6693 15.9796Z" fill="white"/>
<path d="M73.1322 20.8141V14.4134L70.6551 19.1799H69.6399L67.1628 14.4134V20.8141H65.2948V11.145H67.2982L70.1407 16.6469L73.0104 11.145H75.0002V20.8141H73.1322Z" fill="white"/>
<path d="M83.8153 20.8822C83.1114 20.8822 82.4707 20.746 81.8931 20.4736C81.3246 20.1922 80.8328 19.8245 80.4177 19.3706C80.0116 18.9075 79.6958 18.3809 79.4702 17.7908C79.2446 17.2007 79.1318 16.5969 79.1318 15.9796C79.1318 15.3349 79.2491 14.7176 79.4837 14.1274C79.7274 13.5373 80.0568 13.0153 80.4719 12.5613C80.896 12.1074 81.3968 11.7487 81.9744 11.4855C82.5519 11.2131 83.1791 11.0769 83.8559 11.0769C84.5507 11.0769 85.1824 11.2222 85.7509 11.5127C86.3284 11.7941 86.8202 12.1664 87.2263 12.6294C87.6324 13.0924 87.9482 13.619 88.1738 14.2092C88.3994 14.7993 88.5122 15.3985 88.5122 16.0068C88.5122 16.6514 88.3949 17.2688 88.1603 17.8589C87.9257 18.44 87.6008 18.9575 87.1857 19.4114C86.7706 19.8563 86.2743 20.2149 85.6968 20.4873C85.1192 20.7506 84.4921 20.8822 83.8153 20.8822ZM81.0268 15.9796C81.0268 16.3972 81.09 16.8012 81.2163 17.1916C81.3427 17.582 81.5232 17.927 81.7578 18.2266C82.0014 18.5262 82.2947 18.7668 82.6376 18.9484C82.9896 19.13 83.3866 19.2207 83.8288 19.2207C84.28 19.2207 84.677 19.13 85.02 18.9484C85.3719 18.7577 85.6652 18.508 85.8998 18.1994C86.1434 17.8907 86.3239 17.5457 86.4412 17.1644C86.5676 16.774 86.6307 16.379 86.6307 15.9796C86.6307 15.5619 86.5631 15.1579 86.4277 14.7675C86.3014 14.3771 86.1164 14.0321 85.8727 13.7325C85.6381 13.4329 85.3448 13.1968 84.9929 13.0243C84.65 12.8428 84.2619 12.752 83.8288 12.752C83.3776 12.752 82.976 12.8473 82.6241 13.038C82.2721 13.2195 81.9789 13.4647 81.7442 13.7734C81.5096 14.073 81.3291 14.418 81.2028 14.8084C81.0855 15.1897 81.0268 15.5801 81.0268 15.9796Z" fill="white"/>
<path d="M98.3781 13.678C98.3149 13.6145 98.1976 13.5282 98.0261 13.4193C97.8637 13.3103 97.6607 13.2059 97.417 13.1061C97.1824 12.9971 96.9252 12.9063 96.6455 12.8337C96.3657 12.7611 96.0815 12.7247 95.7927 12.7247C95.2783 12.7247 94.8948 12.8201 94.6421 13.0107C94.3895 13.2014 94.2631 13.4692 94.2631 13.8142C94.2631 14.014 94.3083 14.1819 94.3985 14.3181C94.4978 14.4452 94.6376 14.5587 94.8181 14.6586C94.9986 14.7584 95.2242 14.8492 95.4949 14.9309C95.7747 15.0126 96.095 15.0989 96.456 15.1897C96.9252 15.3168 97.3493 15.453 97.7284 15.5982C98.1164 15.7435 98.4412 15.9251 98.7029 16.143C98.9737 16.3609 99.1812 16.6242 99.3256 16.9328C99.47 17.2325 99.5422 17.6047 99.5422 18.0496C99.5422 18.5671 99.4429 19.0119 99.2444 19.3842C99.0549 19.7473 98.7932 20.0424 98.4593 20.2694C98.1344 20.4963 97.7554 20.6643 97.3223 20.7733C96.8981 20.8731 96.4515 20.9231 95.9822 20.9231C95.2603 20.9231 94.5474 20.8141 93.8435 20.5962C93.1396 20.3783 92.508 20.0696 91.9485 19.6702L92.7742 18.0496C92.8554 18.1313 92.9998 18.2402 93.2073 18.3764C93.4239 18.5035 93.6766 18.6352 93.9653 18.7713C94.2541 18.8984 94.5745 19.0074 94.9264 19.0982C95.2783 19.189 95.6393 19.2344 96.0093 19.2344C97.038 19.2344 97.5524 18.903 97.5524 18.2402C97.5524 18.0314 97.4937 17.8544 97.3764 17.7091C97.2591 17.5638 97.0922 17.4367 96.8756 17.3278C96.659 17.2188 96.3973 17.119 96.0905 17.0282C95.7837 16.9374 95.4408 16.8375 95.0618 16.7286C94.6015 16.6015 94.2 16.4653 93.8571 16.32C93.5232 16.1657 93.2434 15.9886 93.0178 15.7889C92.7922 15.5801 92.6208 15.344 92.5035 15.0807C92.3952 14.8084 92.341 14.4861 92.341 14.1138C92.341 13.6236 92.4313 13.1878 92.6117 12.8065C92.7922 12.4251 93.0404 12.1074 93.3562 11.8532C93.6811 11.5989 94.0556 11.4083 94.4797 11.2812C94.9038 11.145 95.3596 11.0769 95.8468 11.0769C96.5236 11.0769 97.1463 11.1859 97.7148 11.4037C98.2833 11.6126 98.7796 11.8622 99.2038 12.1528L98.3781 13.678Z" fill="white"/>
<defs>
<filter id="filter0_d_44_6508" x="1.84337" y="2.46143" width="28.4725" height="28.3061" filterUnits="userSpaceOnUse" color-interpolation-filters="sRGB">
<feFlood flood-opacity="0" result="BackgroundImageFix"/>
<feColorMatrix in="SourceAlpha" type="matrix" values="0 0 0 0 0 0 0 0 0 0 0 0 0 0 0 0 0 0 127 0" result="hardAlpha"/>
<feOffset dy="0.614458"/>
<feGaussianBlur stdDeviation="0.307229"/>
<feComposite in2="hardAlpha" operator="out"/>
<feColorMatrix type="matrix" values="0 0 0 0 0 0 0 0 0 0 0 0 0 0 0 0 0 0 0.15 0"/>
<feBlend mode="normal" in2="BackgroundImageFix" result="effect1_dropShadow_44_6508"/>
<feBlend mode="normal" in="SourceGraphic" in2="effect1_dropShadow_44_6508" result="shape"/>
</filter>
<linearGradient id="paint0_linear_44_6508" x1="6.44732" y1="6.35038" x2="25.7157" y2="25.6304" gradientUnits="userSpaceOnUse">
<stop stop-color="#F99F1B"/>
<stop offset="0.2" stop-color="#F79022"/>
<stop offset="0.37" stop-color="#F5812A"/>
<stop offset="0.598958" stop-color="#F15E32"/>
<stop offset="0.75" stop-color="#E2483A"/>
<stop offset="0.864583" stop-color="#C53345"/>
<stop offset="1" stop-color="#BB2C4A"/>
</linearGradient>
</defs>
</svg>
