<svg xmlns="http://www.w3.org/2000/svg" viewBox="0 0 194.17 54.15"><defs><style>.cls-1{fill:#fff;}</style></defs><g id="Layer_2" data-name="Layer 2"><g id="Layer_1-2" data-name="Layer 1"><path class="cls-1" d="M27.22,40a12.91,12.91,0,0,1-6.58-1.7,13.28,13.28,0,0,1-4.71-4.71A12.86,12.86,0,0,1,14.22,27a12.57,12.57,0,0,1,1.71-6.52,12.91,12.91,0,0,1,4.71-4.6,12.53,12.53,0,0,1,6.58-1.77,13,13,0,0,1,6.63,1.71,12.55,12.55,0,0,1,4.66,4.66A12.36,12.36,0,0,1,40.28,27a12.51,12.51,0,0,1-1.77,6.58A12.63,12.63,0,0,1,27.22,40Zm0-5.49A7.22,7.22,0,0,0,31,33.6a6.52,6.52,0,0,0,2.53-2.7A7.9,7.9,0,0,0,34.42,27a7.62,7.62,0,0,0-.94-3.84,7,7,0,0,0-6.26-3.57,7.07,7.07,0,0,0-3.73,1A6.77,6.77,0,0,0,21,23.18,8.12,8.12,0,0,0,20.09,27,8.43,8.43,0,0,0,21,30.9a7.3,7.3,0,0,0,2.53,2.7A7.4,7.4,0,0,0,27.22,34.53Zm0,19.62a27,27,0,0,1-13.76-3.57,28,28,0,0,1-9.85-9.85A27,27,0,0,1,0,27,26.42,26.42,0,0,1,3.58,13.32a27.25,27.25,0,0,1,9.85-9.64A26.42,26.42,0,0,1,27.19,0,27.55,27.55,0,0,1,41.06,3.57a26.19,26.19,0,0,1,9.74,9.75A25.75,25.75,0,0,1,54.49,27,26.34,26.34,0,0,1,50.8,40.73a27.13,27.13,0,0,1-9.74,9.85A27.16,27.16,0,0,1,27.19,54.15Zm.06-10.24a16.54,16.54,0,0,0,8.47-2.12,14.86,14.86,0,0,0,5.77-6.12,18.12,18.12,0,0,0,2.12-8.82,17.41,17.41,0,0,0-2.12-8.7,15.38,15.38,0,0,0-5.77-5.88A15.85,15.85,0,0,0,27.25,10a16.09,16.09,0,0,0-8.47,2.24A15.52,15.52,0,0,0,13,18.15a18.3,18.3,0,0,0-2,8.7,19.06,19.06,0,0,0,2,8.82,16,16,0,0,0,5.77,6.12A17,17,0,0,0,27.25,43.91Z"/><path class="cls-1" d="M77.47,24.31V36.7H73.73V17.37h2.9l10,12.69V17.39h3.73V36.7h-3Z"/><path class="cls-1" d="M108,36.84a8.86,8.86,0,0,1-3.85-.82,9.9,9.9,0,0,1-3-2.2,10.42,10.42,0,0,1-1.89-3.16A10.1,10.1,0,0,1,98.63,27a10,10,0,0,1,.71-3.71,10.44,10.44,0,0,1,2-3.13,9.26,9.26,0,0,1,3-2.15,8.62,8.62,0,0,1,3.76-.82,8.23,8.23,0,0,1,3.79.87,9.13,9.13,0,0,1,2.95,2.24,10.47,10.47,0,0,1,1.9,3.15,10.06,10.06,0,0,1,.67,3.6,9.89,9.89,0,0,1-.7,3.7,10.22,10.22,0,0,1-2,3.11,9.53,9.53,0,0,1-3,2.15A8.89,8.89,0,0,1,108,36.84ZM102.42,27a7.9,7.9,0,0,0,.38,2.42,6.58,6.58,0,0,0,1.08,2.07A5.69,5.69,0,0,0,105.64,33a5.07,5.07,0,0,0,2.39.55,5,5,0,0,0,2.38-.55,5.53,5.53,0,0,0,1.76-1.49,6.21,6.21,0,0,0,1.08-2.07,7.82,7.82,0,0,0,.38-2.37,7.38,7.38,0,0,0-.41-2.43,6.26,6.26,0,0,0-1.11-2.07,4.87,4.87,0,0,0-1.76-1.41,4.79,4.79,0,0,0-2.32-.55,5,5,0,0,0-2.41.57,5.25,5.25,0,0,0-1.76,1.47,6.81,6.81,0,0,0-1.09,2.07A8.16,8.16,0,0,0,102.42,27Z"/><path class="cls-1" d="M141.35,36.7V23.9l-5,9.54h-2l-5-9.54V36.7h-3.74V17.37h4l5.68,11,5.74-11h4V36.7Z"/><path class="cls-1" d="M162.71,36.84a8.81,8.81,0,0,1-3.84-.82,9.78,9.78,0,0,1-3-2.2,10.44,10.44,0,0,1-1.9-3.16,10.09,10.09,0,0,1-.67-3.62,9.94,9.94,0,0,1,.7-3.71,10.67,10.67,0,0,1,2-3.13,9.33,9.33,0,0,1,3-2.15,8.66,8.66,0,0,1,3.77-.82,8.26,8.26,0,0,1,3.79.87,9.35,9.35,0,0,1,2.95,2.24,10.25,10.25,0,0,1,1.89,3.15,10.08,10.08,0,0,1,.68,3.6,9.9,9.9,0,0,1-.71,3.7,10.22,10.22,0,0,1-2,3.11,9.6,9.6,0,0,1-3,2.15A8.94,8.94,0,0,1,162.71,36.84ZM157.14,27a7.61,7.61,0,0,0,.38,2.42,6.58,6.58,0,0,0,1.08,2.07A5.58,5.58,0,0,0,160.36,33a5,5,0,0,0,2.38.55,4.92,4.92,0,0,0,2.38-.55,5.42,5.42,0,0,0,1.76-1.49A6.42,6.42,0,0,0,168,29.41a7.81,7.81,0,0,0,.37-2.37,7.37,7.37,0,0,0-.4-2.43,6.26,6.26,0,0,0-1.11-2.07,5,5,0,0,0-1.76-1.41,4.83,4.83,0,0,0-2.33-.55,5,5,0,0,0-2.41.57,5.35,5.35,0,0,0-1.76,1.47,6.58,6.58,0,0,0-1.08,2.07A7.83,7.83,0,0,0,157.14,27Z"/><path class="cls-1" d="M191.84,22.43a4.74,4.74,0,0,0-.7-.51,7.24,7.24,0,0,0-1.22-.63,9.4,9.4,0,0,0-1.55-.55,6.94,6.94,0,0,0-1.7-.21,3.8,3.8,0,0,0-2.3.57,1.89,1.89,0,0,0-.76,1.61,1.78,1.78,0,0,0,.27,1,2.66,2.66,0,0,0,.84.68,6.73,6.73,0,0,0,1.35.55l1.93.52a26.37,26.37,0,0,1,2.54.81,6.71,6.71,0,0,1,2,1.09,4.32,4.32,0,0,1,1.24,1.58,5.14,5.14,0,0,1,.44,2.24,5.53,5.53,0,0,1-.6,2.66A4.81,4.81,0,0,1,192,35.62a6.79,6.79,0,0,1-2.27,1,11.65,11.65,0,0,1-2.68.3,14.57,14.57,0,0,1-4.28-.65A13.23,13.23,0,0,1,179,34.42l1.65-3.24a5.63,5.63,0,0,0,.87.65c.43.25.94.52,1.51.79a12.82,12.82,0,0,0,1.93.65,8.64,8.64,0,0,0,2.16.28c2.06,0,3.09-.67,3.09-2a1.7,1.7,0,0,0-.35-1.07,3,3,0,0,0-1-.76,8.92,8.92,0,0,0-1.57-.6l-2-.6a18.78,18.78,0,0,1-2.41-.81,6.83,6.83,0,0,1-1.68-1.07,4.23,4.23,0,0,1-1-1.41,5.19,5.19,0,0,1-.32-1.94,6,6,0,0,1,.54-2.61,5.29,5.29,0,0,1,1.49-1.91A6.59,6.59,0,0,1,184,17.64a9,9,0,0,1,2.74-.41,10.44,10.44,0,0,1,3.73.65,13.6,13.6,0,0,1,3,1.5Z"/></g></g></svg>