<svg width="212" height="140" viewBox="0 0 212 140" fill="none" xmlns="http://www.w3.org/2000/svg">
<path d="M55.6062 83.0011C50.3009 77.8057 44.3013 73.6289 37.4921 70.0586C44.2214 66.4965 50.1325 62.293 55.3763 57.0686C61.2353 51.2313 65.9902 44.3879 70.1495 36.3141C74.4894 44.5893 79.3727 51.5395 85.3109 57.4216C90.4849 62.5468 96.2541 66.6588 102.76 70.1298C95.5941 73.9635 89.4161 78.4271 84.0122 83.9107C78.5283 89.4756 74.0759 95.8559 70.1934 103.207C66.1301 95.3432 61.4182 88.6928 55.6062 83.0011Z" fill="white" stroke="white" stroke-width="20"/>
<path d="M149.523 75.8505C147.135 73.5126 144.435 71.633 141.371 70.0264C144.4 68.4234 147.06 66.5318 149.419 64.1809C152.056 61.5541 154.196 58.4746 156.067 54.8413C158.02 58.5652 160.218 61.6928 162.89 64.3397C165.218 66.6461 167.814 68.4965 170.742 70.0584C167.517 71.7836 164.737 73.7922 162.305 76.2598C159.838 78.764 157.834 81.6352 156.087 84.9432C154.258 81.4045 152.138 78.4117 149.523 75.8505Z" fill="white" stroke="white" stroke-width="9"/>
<path d="M191.173 72.5538C190.131 71.5333 188.952 70.7128 187.615 70.0115C188.937 69.3118 190.098 68.4861 191.128 67.4599C192.279 66.3133 193.213 64.9691 194.03 63.3831C194.882 65.0086 195.841 66.3738 197.008 67.5292C198.024 68.536 199.157 69.3437 200.435 70.0255C199.028 70.7785 197.814 71.6553 196.753 72.7325C195.675 73.8256 194.801 75.0788 194.038 76.5228C193.24 74.9781 192.314 73.6718 191.173 72.5538Z" fill="white" stroke="white" stroke-width="3.92857"/>
</svg>
