<svg width="218" height="120" viewBox="0 0 218 120" fill="none" xmlns="http://www.w3.org/2000/svg">
<path d="M45.0027 73.0011C39.6974 67.8057 33.6978 63.6289 26.8886 60.0586C33.6179 56.4965 39.529 52.293 44.7728 47.0686C50.6318 41.2313 55.3867 34.3879 59.546 26.3141C63.8859 34.5893 68.7692 41.5395 74.7073 47.4216C79.8814 52.5468 85.6506 56.6588 92.1568 60.1298C84.9906 63.9635 78.8126 68.4271 73.4087 73.9107C67.9248 79.4756 63.4723 85.8559 59.5899 93.207C55.5266 85.3432 50.8147 78.6928 45.0027 73.0011Z" stroke="#CFFF04" stroke-width="20"/>
<path d="M143.797 73.0011C138.491 67.8057 132.492 63.6289 125.683 60.0586C132.412 56.4965 138.323 52.293 143.567 47.0686C149.426 41.2313 154.181 34.3879 158.34 26.3141C162.68 34.5893 167.563 41.5395 173.501 47.4216C178.675 52.5468 184.445 56.6588 190.951 60.1298C183.785 63.9635 177.607 68.4271 172.203 73.9107C166.719 79.4756 162.266 85.8559 158.384 93.207C154.321 85.3432 149.609 78.6928 143.797 73.0011Z" stroke="#CFFF04" stroke-width="20"/>
</svg>
