<svg width="319" height="160" viewBox="0 0 319 160" fill="none" xmlns="http://www.w3.org/2000/svg">
<path d="M6.75 132V27.2727H35.1818V69.6136H36.6136L68.1136 27.2727H101.25L65.8636 73.9091L102.068 132H68.1136L44.5909 92.7273L35.1818 105V132H6.75Z" fill="#CFFF04"/>
<path d="M146.003 93.0011C140.697 87.8057 134.698 83.6289 127.889 80.0586C134.618 76.4965 140.529 72.293 145.773 67.0686C151.632 61.2313 156.387 54.3879 160.546 46.3141C164.886 54.5893 169.769 61.5395 175.707 67.4216C180.881 72.5468 186.651 76.6588 193.157 80.1298C185.991 83.9635 179.813 88.4271 174.409 93.9107C168.925 99.4756 164.472 105.856 160.59 113.207C156.527 105.343 151.815 98.6928 146.003 93.0011Z" stroke="#CFFF04" stroke-width="20"/>
<path d="M244.797 93.0011C239.491 87.8057 233.492 83.6289 226.683 80.0586C233.412 76.4965 239.323 72.293 244.567 67.0686C250.426 61.2313 255.181 54.3879 259.34 46.3141C263.68 54.5893 268.563 61.5395 274.501 67.4216C279.675 72.5468 285.445 76.6588 291.951 80.1298C284.785 83.9635 278.607 88.4271 273.203 93.9107C267.719 99.4756 263.266 105.856 259.384 113.207C255.321 105.343 250.609 98.6928 244.797 93.0011Z" stroke="#CFFF04" stroke-width="20"/>
</svg>
